<svg xmlns="http://www.w3.org/2000/svg" viewBox="0 0 560 360" width="560" height="360" role="img">
  <defs><marker id="arrow" markerWidth="8" markerHeight="8" refX="6" refY="3" orient="auto" markerUnits="strokeWidth"><path d="M0,0 L0,6 L7,3 z" fill="#0b1326"/></marker><marker id="arrow-blue" markerWidth="8" markerHeight="8" refX="6" refY="3" orient="auto" markerUnits="strokeWidth"><path d="M0,0 L0,6 L7,3 z" fill="#2563eb"/></marker><marker id="arrow-red" markerWidth="8" markerHeight="8" refX="6" refY="3" orient="auto" markerUnits="strokeWidth"><path d="M0,0 L0,6 L7,3 z" fill="#dc2626"/></marker></defs>

  <line x1="70" y1="300" x2="500" y2="300" stroke="#0b1326" stroke-width="4" marker-end="url(#arrow)"/>
  <line x1="70" y1="300" x2="70" y2="55" stroke="#0b1326" stroke-width="4" marker-end="url(#arrow)"/>
  <polyline points="70,95 150,155 230,195 310,225 390,245" fill="none" stroke="#2563eb" stroke-width="5" stroke-linecap="round" stroke-linejoin="round"/>
  <polyline points="70,300 150,240 230,195 310,165 390,145" fill="none" stroke="#dc2626" stroke-width="5" stroke-linecap="round" stroke-linejoin="round"/>
  <text x="505" y="307" text-anchor="start" font-family="Arial, sans-serif" font-size="15" fill="#0b1326">Waktu (s)</text>
  <text x="64" y="42" text-anchor="middle" font-family="Arial, sans-serif" font-size="15" fill="#0b1326">Konsentrasi (M)</text>
  <text x="50" y="100" text-anchor="end" font-family="Arial, sans-serif" font-size="15" fill="#0b1326">0.5</text>
  <text x="230" y="325" text-anchor="middle" font-family="Arial, sans-serif" font-size="15" fill="#0b1326">10</text>
  <text x="405" y="250" text-anchor="start" font-family="Arial, sans-serif" font-size="15" fill="#2563eb" font-weight="700">Zat A</text>
  <text x="405" y="150" text-anchor="start" font-family="Arial, sans-serif" font-size="15" fill="#dc2626" font-weight="700">Zat B</text>
</svg>
